<svg width="476" height="479" viewBox="0 0 476 479" fill="none" xmlns="http://www.w3.org/2000/svg">
<path d="M447.366 139.016H361.531C354.385 139.016 348.591 144.815 348.591 151.968V298.693C348.591 305.846 354.385 311.645 361.531 311.645H447.366C454.513 311.645 460.307 305.846 460.307 298.693V151.968C460.307 144.815 454.513 139.016 447.366 139.016Z" fill="#A3CAD3"/>
<path d="M330.035 139.016H270.267C263.12 139.016 257.327 144.815 257.327 151.968V298.693C257.327 305.846 263.12 311.645 270.267 311.645H330.035C337.182 311.645 342.975 305.846 342.975 298.693V151.968C342.975 144.815 337.182 139.016 330.035 139.016Z" fill="#A3CAD3"/>
<path d="M262.275 399.428H459.69C463.101 399.426 466.372 398.07 468.784 395.656C471.197 393.242 472.554 389.969 472.557 386.556V141.292C472.557 139.601 472.225 137.926 471.579 136.363C470.932 134.8 469.984 133.38 468.79 132.184C467.595 130.988 466.176 130.04 464.615 129.393C463.053 128.746 461.38 128.413 459.69 128.414H325.528L290.463 128.624H290.361L272.631 129.314H272.574L267.908 129.496H267.495L267.15 132.275L266.472 137.443C266.479 137.453 266.483 137.464 266.483 137.477C266.483 137.489 266.479 137.501 266.472 137.511L260.952 145.696L259.821 147.354L256.704 167.313V167.41C256.637 167.381 256.569 167.342 256.484 167.296C256.416 167.257 256.351 167.211 256.292 167.161C255.243 166.37 254.455 165.284 254.029 164.042C252.994 161.415 252.745 157.934 252.734 155.172L252.055 170.336V170.393L251.111 190.652L250.879 196.091C251.32 195.304 251.954 194.172 252.689 192.82L250.342 207.831L249.855 218.648L248.645 245.983L248.6 247.002V247.392L248.283 254.049V254.202C248.283 254.202 247.378 273.736 247.378 273.765L247.293 275.576L246.247 283.484L243.193 305.611V386.556C243.194 388.862 243.815 391.125 244.991 393.108C246.167 395.091 247.856 396.721 249.878 397.826C253.707 399.903 257.943 399.626 262.151 399.484C263.282 399.45 264.413 399.399 265.544 399.337" fill="#EAEAEA"/>
<path d="M254.782 395.205C254.702 395.205 254.618 395.132 254.521 395.104C253.446 394.718 252.43 394.184 251.501 393.519C249.872 392.36 248.545 390.827 247.63 389.047C246.716 387.269 246.242 385.296 246.247 383.296V275.271L243.193 276.737L243.001 276.833L242.588 275.809L240.546 270.714L239.981 269.305L234.817 256.404C234.817 256.404 244.624 216.69 251.111 190.652C253.486 181.092 255.421 173.371 256.235 170.127C256.484 169.159 256.631 168.593 256.659 168.497C256.661 168.474 256.661 168.452 256.659 168.429C256.676 168.236 256.647 168.042 256.574 167.863C256.494 167.654 256.397 167.451 256.286 167.257C256.273 167.217 256.254 167.179 256.229 167.144C255.557 165.999 254.801 164.905 253.967 163.872L252.893 150.553L253.068 150.417L253.882 149.766L259.447 145.351L260.743 141.921L263.282 135.253L264.413 132.281H267.105H267.795H272.665L290.661 132.225H292.205L326.348 132.021H456.987C458.632 132.021 460.261 132.345 461.78 132.976C463.3 133.606 464.681 134.531 465.843 135.696C467.005 136.86 467.927 138.243 468.555 139.765C469.182 141.287 469.505 142.918 469.503 144.564V383.296C469.505 384.942 469.182 386.573 468.555 388.095C467.927 389.616 467.005 390.999 465.843 392.165C464.681 393.33 463.3 394.253 461.78 394.884C460.261 395.515 458.632 395.839 456.987 395.839H262.513" fill="#E98862"/>
<path d="M447.367 324.322H270.267C263.12 324.322 257.327 330.121 257.327 337.273V373.28C257.327 380.433 263.12 386.231 270.267 386.231H447.367C454.513 386.231 460.307 380.433 460.307 373.28V337.273C460.307 330.121 454.513 324.322 447.367 324.322Z" fill="white"/>
<path d="M388.814 338.114H274.412C271.992 338.114 270.029 340.078 270.029 342.501V368.946C270.029 371.369 271.992 373.333 274.412 373.333H388.814C391.235 373.333 393.197 371.369 393.197 368.946V342.501C393.197 340.078 391.235 338.114 388.814 338.114Z" fill="#F79E1B" fill-opacity="0.19"/>
<path d="M368.29 352.949C370.301 352.949 371.932 351.317 371.932 349.303C371.932 347.29 370.301 345.658 368.29 345.658C366.278 345.658 364.647 347.29 364.647 349.303C364.647 351.317 366.278 352.949 368.29 352.949Z" fill="white"/>
<path d="M358.121 365.786C358.121 363.084 359.193 360.492 361.103 358.581C363.012 356.67 365.601 355.597 368.301 355.597C371.001 355.597 373.59 356.67 375.5 358.581C377.409 360.492 378.481 363.084 378.481 365.786H358.121Z" fill="white"/>
<path d="M443.306 263.807C442.437 271.307 439.335 278.373 434.403 284.086C429.47 289.799 422.936 293.896 415.648 295.844C408.359 297.793 400.654 297.503 393.532 295.012C386.411 292.522 380.202 287.945 375.712 281.878C371.223 275.81 368.66 268.531 368.355 260.987C368.052 253.443 370.021 245.982 374.009 239.572C377.996 233.163 383.817 228.101 390.715 225.045C397.614 221.989 405.271 221.079 412.692 222.435C413.018 222.497 413.328 222.627 413.602 222.814C413.877 223.002 414.11 223.243 414.288 223.524C414.466 223.806 414.584 224.12 414.635 224.449C414.686 224.777 414.67 225.113 414.587 225.435L413.846 228.327L407.206 254.275C407.1 254.689 407.105 255.123 407.22 255.534C407.334 255.946 407.556 256.32 407.86 256.619C408.165 256.917 408.543 257.131 408.956 257.237C409.37 257.343 409.804 257.339 410.215 257.224L435.987 250.013L439.511 249.028C439.825 248.939 440.153 248.915 440.477 248.956C440.8 248.998 441.112 249.103 441.394 249.268C441.675 249.432 441.921 249.651 442.116 249.912C442.312 250.173 442.453 250.472 442.531 250.788C443.546 255.05 443.808 259.456 443.306 263.807Z" fill="white"/>
<path d="M444.194 237.067C444.316 237.383 444.37 237.721 444.353 238.06C444.336 238.399 444.248 238.73 444.095 239.033C443.942 239.335 443.727 239.602 443.465 239.816C443.202 240.031 442.897 240.187 442.571 240.276L440.144 240.956L419.156 246.825C418.745 246.94 418.311 246.944 417.898 246.838C417.485 246.732 417.107 246.519 416.802 246.22C416.497 245.921 416.276 245.547 416.161 245.136C416.046 244.724 416.042 244.29 416.148 243.876L421.571 222.751L422.092 220.725C422.174 220.403 422.321 220.101 422.524 219.838C422.727 219.575 422.983 219.358 423.274 219.198C423.566 219.039 423.887 218.941 424.218 218.912C424.548 218.882 424.881 218.921 425.197 219.027C429.466 220.501 433.371 222.875 436.648 225.986C439.925 229.098 442.498 232.876 444.194 237.067Z" fill="white"/>
<path d="M405.419 172.775C411.129 172.775 415.757 168.142 415.757 162.427C415.757 156.713 411.129 152.08 405.419 152.08C399.709 152.08 395.08 156.713 395.08 162.427C395.08 168.142 399.709 172.775 405.419 172.775Z" fill="#D7E8F0"/>
<path d="M443.555 185.296H368.295V187.365H443.555V185.296Z" fill="#D7E8F0"/>
<path d="M443.555 192.959H368.295V195.029H443.555V192.959Z" fill="#D7E8F0"/>
<path d="M443.555 199.947H368.295V202.016H443.555V199.947Z" fill="#D7E8F0"/>
<path d="M329.798 228.576H270.843V230.646H329.798V228.576Z" fill="#D7E8F0"/>
<path d="M329.798 236.937H270.843V239.007H329.798V236.937Z" fill="#D7E8F0"/>
<path d="M329.798 245.292H270.843V247.362H329.798V245.292Z" fill="#D7E8F0"/>
<path d="M329.798 253.653H270.843V255.723H329.798V253.653Z" fill="#D7E8F0"/>
<path d="M329.798 262.013H270.843V264.083H329.798V262.013Z" fill="#D7E8F0"/>
<path d="M262.756 169.708C262.756 169.708 280.673 197.948 301.09 206.824C321.506 215.7 327.886 219.622 335.696 216.447C343.507 213.271 358.5 208.822 369.064 177.389C379.629 145.957 384.663 129.411 385.036 121.798C385.409 114.184 364.404 120.439 364.404 120.439C364.404 120.439 353.093 153.808 328.31 168.701L293.013 131.387L262.756 169.708Z" fill="white"/>
<path d="M241.819 213.107L256.241 217.024C256.241 217.024 239.494 240.136 254.386 264.335C269.277 288.533 299.942 337.355 299.942 337.355L358.636 430.753L303.742 423.094L262.756 378.161L241.83 357.28L215.605 275.344L241.819 213.107Z" fill="white"/>
<path d="M6.34167 332.543C7.63839 333.245 9.13939 333.472 10.5852 333.183C12.031 332.895 13.3308 332.11 14.2595 330.964L35.6038 304.773L52.8251 283.139L38.7257 275.214C37.2654 274.388 35.537 274.177 33.9212 274.626C32.3048 275.075 30.9328 276.147 30.1065 277.608L3.83058 323.798C3.412 324.535 3.14478 325.348 3.04461 326.189C2.94445 327.031 3.01334 327.885 3.24725 328.699C3.48117 329.514 3.87542 330.274 4.40683 330.934C4.93823 331.594 5.59603 332.141 6.34167 332.543Z" fill="#2E2E2E"/>
<path d="M331.234 456.084L348.998 473.575C350.532 475.088 352.597 475.937 354.75 475.941H399.175C400.553 475.947 401.903 475.55 403.06 474.801C404.217 474.052 405.131 472.982 405.69 471.721C406.25 470.461 406.431 469.064 406.211 467.703C405.991 466.342 405.38 465.073 404.452 464.054C403.284 462.746 401.67 461.923 399.927 461.744L375.286 459.214L331.234 456.084Z" fill="#2E2E2E"/>
<path d="M169.008 237.315C169.008 237.315 203.366 246.881 226.271 249.734C249.177 252.587 247.571 243.077 247.571 243.077L250.37 231.066C257.722 219.077 261.992 193.571 261.992 193.571L264.945 173.617L269.254 181.208L283.184 195.252L283.354 195.388C282.929 188.68 283.252 179.255 284.813 166.417C288.41 136.7 300.32 140.147 300.32 140.147L298.573 138.228C290.344 124.524 264.074 110.039 255.681 106.575C247.288 103.11 250.879 108.018 251.948 111.669C253.017 115.32 249.963 125.594 237.73 120.363C225.497 115.133 224.88 103.756 224.88 103.756H219.196C184.329 107.95 166.599 126.562 166.599 126.562C203.638 135.307 195.137 166.751 195.137 166.751L191.778 169.825C178.629 181.236 177.712 192.24 178.849 196.825C179.986 201.41 188.096 207.58 202.738 211.158C217.381 214.735 220.045 214.741 223.353 208.407C226.662 202.073 230.519 201.292 235.796 200.341C241.072 199.39 247.537 203.143 246.06 206.097C244.584 209.052 243.515 206.471 247.192 214.452C250.868 222.434 249.16 226.492 239.274 233.845C229.388 241.198 185.432 237.072 185.432 237.072C164.41 231.253 169.008 237.315 169.008 237.315Z" fill="#183154"/>
<path d="M249.369 103.944V105.15V105.455C259.196 107.913 268.451 112.262 276.618 118.259C277.941 119.227 279.231 120.212 280.503 121.248C280.537 117.088 280.181 112.91 278.841 108.97C277.755 105.589 275.709 102.598 272.953 100.361C270.527 98.4249 267.659 97.1852 264.775 96.0644C261.891 94.9437 259.057 93.9587 256.41 92.4474C254.18 91.2264 252.231 89.5481 250.693 87.5228C250.153 86.7903 249.816 85.9282 249.717 85.0236C249.618 84.1191 249.759 83.2044 250.127 82.3717C249.867 82.3536 249.611 82.3026 249.363 82.2189L249.369 103.944Z" fill="#A3CAD3"/>
<path d="M249.369 103.944V105.15V105.455C259.196 107.913 268.451 112.262 276.618 118.259C277.941 119.227 279.231 120.212 280.503 121.248C280.537 117.088 280.181 112.91 278.841 108.97C277.755 105.589 275.709 102.598 272.953 100.361C270.527 98.4249 267.659 97.1852 264.775 96.0644C261.891 94.9437 259.057 93.9587 256.41 92.4474C254.18 91.2264 252.231 89.5481 250.693 87.5228C250.153 86.7903 249.816 85.9282 249.717 85.0236C249.618 84.1191 249.759 83.2044 250.127 82.3717C249.867 82.3536 249.611 82.3026 249.363 82.2189L249.369 103.944Z" fill="#38609B"/>
<path d="M113.595 197.92C117.287 200.565 121.392 202.579 125.743 203.881C127.614 204.458 129.516 204.934 131.438 205.307C123.843 187.392 129.527 163.821 153.495 138.689C157.599 134.378 161.968 130.329 166.576 126.564C174.025 120.501 180.642 115.984 188.447 112.35C191.941 110.737 195.529 109.336 199.192 108.156C205.688 105.992 212.393 104.517 219.196 103.758C220.74 103.571 222.267 103.435 223.811 103.35C223.435 100.696 223.509 97.9976 224.032 95.3688C225.457 88.1517 227.94 84.0026 232.453 78.3138C235.281 74.7307 239.698 66.172 233.81 63.2172C230.095 61.3663 229.755 57.5567 231.503 55.2926C232.979 53.3227 235.965 52.4227 239.647 54.7265C242.192 56.3567 245.212 56.4586 248.13 55.6605C250.397 54.3388 252.362 52.5574 253.899 50.4302C258.175 44.2999 258.328 35.011 251.637 30.5109C247.989 28.0486 243.34 27.4542 238.98 27.9297C237.027 28.1443 235.103 28.5654 233.239 29.1864C233.231 29.1824 233.222 29.1807 233.214 29.1807C233.205 29.1807 233.196 29.1824 233.188 29.1864C225.27 33.4487 219.643 41.3281 216.928 50.2094C215.334 55.4567 213.535 60.653 211.431 65.7475C209.701 69.9249 208.496 75.0024 204.644 77.8553C203.035 79.0468 201.207 79.9123 199.266 80.4025C191.987 85.0215 181.892 82.3554 173.934 81.3705C167.572 80.4999 161.095 81.1514 155.033 83.2724C148.247 86.7083 142.41 92.1933 137.676 99.3255C129.855 111.128 138.134 128.143 125.053 137.449C121.094 140.251 116.57 141.949 112.243 144.123C106.067 147.264 101.079 151.73 99.2351 158.608C95.5928 172.482 102.074 189.548 113.595 197.92Z" fill="#262626"/>
<path d="M433.448 475.94H123.95" stroke="#183154" stroke-width="4.5" stroke-miterlimit="10"/>
<path d="M260.72 44.8416C261.515 46.4911 262.195 48.1932 262.756 49.9361C263.57 52.7663 262.688 54.5211 263.927 57.2212C264.351 58.1551 264.962 59.7344 265.623 61.3307C265.81 60.9571 265.98 60.6514 266.081 60.4137C270.934 49.5965 264.554 44.3832 261.483 42.6001C261.288 43.3665 261.033 44.116 260.72 44.8416Z" fill="white"/>
<path d="M260.72 44.8416C261.515 46.4911 262.195 48.1932 262.756 49.9361C263.57 52.7663 262.688 54.5211 263.927 57.2212C264.351 58.1551 264.962 59.7344 265.623 61.3307C265.81 60.9571 265.98 60.6514 266.081 60.4137C270.934 49.5965 264.554 44.3832 261.483 42.6001C261.288 43.3665 261.033 44.116 260.72 44.8416Z" fill="white"/>
<path d="M153.195 227.331C150.232 250.721 152.63 291.295 200.488 322.337C209.101 327.924 216.855 335.815 224.45 342.636C245.166 361.372 264.874 381.197 283.489 402.026C294.885 414.671 306.519 427.962 318.074 440.766C323.997 447.31 329.984 453.793 336.036 460.216C340.492 464.919 347.562 475.935 354.728 475.935H398.762C402.721 475.935 406.318 472.691 406.262 468.712C406.229 466.992 405.579 465.342 404.429 464.065C403.261 462.757 401.648 461.933 399.905 461.755L375.263 459.225L256.207 269.723C250.065 259.942 244.618 243.843 249.369 233.298C267.467 193.187 265.912 154.311 265.912 154.311" stroke="#183154" stroke-width="4.5" stroke-miterlimit="10"/>
<path d="M214.836 334.529C209.644 352.784 201.262 371.323 194.34 382.995C191.832 387.256 188.525 390.992 184.601 393.999C170.417 404.872 150.368 403.712 136.766 392.125L69.119 334.495L35.6095 304.772L14.2652 330.963C13.2562 332.192 11.8231 332.998 10.2494 333.221C8.67577 333.444 7.07575 333.068 5.76523 332.168C4.45471 331.268 3.52894 329.909 3.17077 328.359C2.8126 326.81 3.04804 325.182 3.83055 323.797L30.1122 277.619C30.9385 276.158 32.3105 275.085 33.9269 274.636C35.5427 274.187 37.2711 274.399 38.7314 275.224L52.8308 283.149L133.616 328.433C134.959 329.185 136.463 329.608 138.002 329.666C139.541 329.724 141.071 329.415 142.468 328.765C143.864 328.115 145.087 327.142 146.034 325.928C146.982 324.712 147.628 323.29 147.919 321.776L157.488 271.556" stroke="#183154" stroke-width="4.5" stroke-miterlimit="10"/>
<path d="M249.369 78.8555V103.762V104.967V105.273C251.931 109.009 253.221 114.33 250.777 118.292C247.503 123.607 240.275 122.724 235.694 119.753C234.346 118.88 233.058 117.915 231.842 116.866C227.765 113.32 225.125 108.403 224.422 103.043C224.046 100.389 224.12 97.6903 224.643 95.0615C226.079 87.8501 228.556 83.7066 233.075 78.0008C235.903 74.4347 240.314 65.8647 234.421 62.9099C227.516 59.4627 232.3 49.3757 240.258 54.4192C246.434 58.3419 255.307 53.4512 258.972 48.1926C263.248 42.0623 263.401 32.7735 256.71 28.2734C253.062 25.8111 248.413 25.2167 244.053 25.6922C230.768 27.1526 221.312 37.5452 217.528 49.9078C215.933 55.155 214.135 60.3514 212.031 65.4458C210.3 69.6233 209.095 74.7007 205.244 77.5536C197.892 83.0386 187.293 80.1688 178.996 79.1499C161.724 77.0272 147.794 84.6858 138.276 99.0239C130.454 110.826 138.734 127.841 125.653 137.147C121.694 139.949 117.169 141.647 112.843 143.821C106.667 146.963 101.678 151.429 99.8629 158.306C96.1981 172.163 102.691 189.229 114.2 197.601C119.477 201.439 125.653 203.732 132.066 204.988" stroke="#262626" stroke-width="4.5" stroke-miterlimit="10"/>
<path d="M283.467 124.474C283.501 124.157 283.512 123.851 283.529 123.551C283.817 118.078 283.783 112.406 282.002 107.136C280.909 103.759 278.862 100.77 276.109 98.5321C273.677 96.6018 270.809 95.3509 267.936 94.2301C265.063 93.1093 262.213 92.1357 259.572 90.6187C257.336 89.4028 255.386 87.7216 253.854 85.6884C253.317 84.9582 252.982 84.0989 252.883 83.1972C252.783 82.2961 252.924 81.3841 253.288 80.5543" stroke="#183154" stroke-width="4.5" stroke-miterlimit="10"/>
<path d="M244.013 73.2405C246.015 76.1047 248.73 79.1954 252.152 80.3105C256.58 81.7539 259.56 77.9897 261.15 74.3273C262.1 72.148 262.756 69.8272 263.525 67.5744C263.774 66.8328 263.927 66.4762 264.775 66.4423C265.623 66.4083 266.517 66.5781 267.388 66.5781C267.45 66.5764 267.511 66.5583 267.563 66.526C267.616 66.4938 267.659 66.4479 267.689 66.393C267.718 66.3381 267.732 66.277 267.73 66.2147C267.728 66.153 267.709 66.0924 267.676 66.0404C266.506 64.2573 264.758 59.3949 263.876 57.4477C262.648 54.7477 263.536 52.9986 262.711 50.1627C262.148 48.4215 261.473 46.7194 260.686 45.0682" fill="white"/>
<path d="M244.013 73.2405C246.015 76.1047 248.73 79.1954 252.152 80.3105C256.58 81.7539 259.56 77.9897 261.15 74.3273C262.1 72.148 262.756 69.8272 263.525 67.5744C263.774 66.8328 263.927 66.4762 264.775 66.4423C265.623 66.4083 266.517 66.5781 267.388 66.5781C267.45 66.5764 267.511 66.5583 267.563 66.526C267.616 66.4938 267.659 66.4479 267.689 66.393C267.718 66.3381 267.732 66.277 267.73 66.2147C267.728 66.153 267.709 66.0924 267.676 66.0404C266.506 64.2573 264.758 59.3949 263.876 57.4477C262.648 54.7477 263.536 52.9986 262.711 50.1627C262.148 48.4215 261.473 46.7194 260.686 45.0682" stroke="#183154" stroke-width="4.5" stroke-miterlimit="10"/>
<path d="M261.992 39.8323C261.992 39.8323 274.067 44.4682 267.829 58.3987C267.444 59.2421 266.5 61.0025 266.053 61.795" fill="white"/>
<path d="M261.992 39.8323C261.992 39.8323 274.067 44.4682 267.829 58.3987C267.444 59.2421 266.5 61.0025 266.053 61.795" stroke="#183154" stroke-width="4.5" stroke-miterlimit="10"/>
<path d="M392.236 0.11377C392.236 0.11377 392.303 0.147704 392.439 0.198605L392.236 0.11377Z" fill="#A3CAD3"/>
<path d="M261.325 73.9229C260.359 74.0558 259.377 73.8313 258.563 73.2923C257.75 72.7527 257.162 71.9355 256.908 70.9933" stroke="#183154" stroke-width="4.5" stroke-miterlimit="10"/>
<path d="M263.367 55.2689C260.867 53.2329 258.124 55.8345 256.45 57.7234" stroke="#183154" stroke-width="4.5" stroke-miterlimit="10"/>
<path d="M224.439 103.048C216.055 103.58 207.775 105.191 199.803 107.843C186.795 112.111 177.837 117.618 167.21 126.251C162.602 130.023 158.233 134.078 154.129 138.392C130.137 163.525 124.465 187.107 132.072 205.016C138.253 219.609 152.505 228.66 167.108 233.274C176.661 236.285 186.614 237.581 196.602 237.87C208.507 238.209 220.514 237.757 232.233 235.492C237.17 234.541 242.859 233.76 245.806 229.17C248.753 224.579 249.001 218.386 246.813 213.467C244.76 208.888 239.217 203.963 234.206 207.558C233.651 207.959 233.194 208.482 232.869 209.086C232.545 209.69 232.362 210.36 232.334 211.045" stroke="#183154" stroke-width="4.5" stroke-miterlimit="10"/>
<path d="M215.384 133.332C216.007 152.102 200.114 162.568 200.114 162.568C194.843 166.842 189.719 171.432 185.41 176.691C182.655 180.048 180.099 183.806 178.832 188.012C177.885 190.88 177.901 193.979 178.877 196.837C179.957 199.48 181.741 201.774 184.035 203.471C188.322 206.827 193.537 208.565 198.706 210.071C204.402 211.702 210.203 212.939 216.069 213.773C219.462 214.26 220.893 213.207 222.443 210.269C223.845 207.609 224.993 204.529 227.589 202.791C231.186 200.374 236.016 199.814 240.179 200.81C246.598 202.339 248.238 207.433 243.006 208.463" stroke="#183154" stroke-width="4.5" stroke-miterlimit="10"/>
<path d="M211.465 260.676L113.934 237.089L90.7234 333.227L185.551 356.82L188.594 355.422L211.465 260.676Z" fill="white"/>
<path d="M166.463 247.16C171.09 214.748 181.117 206.733 187.644 205.131L187.214 204.893C167.51 197.218 153.846 235.194 150.944 244.075L166.463 247.16Z" fill="#D7E8F0"/>
<path d="M166.192 249.729C170.818 217.317 181.117 206.709 187.644 205.13L187.214 204.892C167.51 197.217 153.28 237.021 150.368 245.897L166.192 249.729Z" fill="#D7E8F0"/>
<path d="M187.214 204.892C164.931 196.22 150.368 245.897 150.368 245.897L166.203 249.729C175.405 199.916 195.149 208.973 195.149 208.973C194.453 208.764 187.214 204.892 187.214 204.892Z" stroke="#183154" stroke-width="4.5" stroke-miterlimit="10"/>
<path d="M112.848 241.671L90.7268 333.258L167.672 351.875L189.793 260.288L112.848 241.671Z" fill="#A3CAD3"/>
<path d="M114.022 236.823L90.7285 333.262L171.747 352.865L195.04 256.425L114.022 236.823Z" fill="white"/>
<path d="M114.403 244.158L94.3418 327.216C93.7735 329.571 95.2196 331.942 97.5723 332.511L165.997 349.066C168.35 349.636 170.719 348.188 171.288 345.833L191.349 262.775C191.918 260.42 190.471 258.049 188.118 257.48L119.694 240.925C117.341 240.355 114.972 241.803 114.403 244.158Z" fill="#E98862"/>
<path d="M113.95 237.124L90.7296 333.26L171.749 352.863L194.968 256.726L113.95 237.124Z" stroke="#183154" stroke-width="4.5" stroke-miterlimit="10"/>
<path d="M195.309 256.802L172.088 352.939L188.262 356.852L211.481 260.715L195.309 256.802Z" fill="white"/>
<path d="M195.309 256.802L172.088 352.939L188.262 356.852L211.481 260.715L195.309 256.802Z" stroke="#183154" stroke-width="4.5" stroke-miterlimit="10"/>
<path d="M188.254 356.821L183.046 343.411L172.079 352.909" stroke="#183154" stroke-width="4.5" stroke-miterlimit="10"/>
<path d="M203.383 258.725L183.046 343.412" stroke="#183154" stroke-width="4.5" stroke-miterlimit="10"/>
<path d="M381.795 102.772C381.49 102.823 381.23 102.874 380.896 102.942C377.836 103.476 374.936 104.695 372.413 106.508C369.647 108.647 367.136 112.366 365.914 115.564C364.067 120.421 362.036 125.199 359.823 129.897C356.482 137.139 352.507 144.072 347.946 150.614C343.213 157.271 337.529 164.018 330.369 168.162C329.47 168.705 328.523 169.166 327.541 169.537C326.336 170.047 309.386 150.529 307.52 148.356C300.038 139.644 292.301 131.018 283.529 123.563C281.306 121.661 279.005 119.827 276.64 118.112C268.468 112.109 259.208 107.755 249.375 105.291" stroke="#183154" stroke-width="4.5" stroke-miterlimit="10"/>
<path d="M412.29 102.057C412.324 102.066 412.359 102.066 412.392 102.057C420.231 102.974 417.16 111.431 411.646 111.159C405.554 110.854 399.48 111.159 393.406 111.261C391.732 111.206 390.065 111.513 388.52 112.161C385.466 113.622 385.177 116.882 384.719 119.837C384.108 123.709 383.413 127.581 382.593 131.418C380.998 139.026 379.03 146.532 376.773 153.97C375.314 158.793 373.702 163.593 372.005 168.342C367.051 182.335 360.807 197.176 350.305 207.965C344.502 213.943 336.901 218.358 328.333 217.713C316.269 216.813 304.664 210.75 294.433 203.856C294.39 203.826 294.35 203.792 294.314 203.754C290.496 201.181 286.835 198.38 283.354 195.365C283.354 195.365 269.254 182.799 264.945 173.595" stroke="#183154" stroke-width="4.5" stroke-miterlimit="10"/>
<path d="M434.579 94.4521V95.2446C434.579 100.713 430.179 101.652 426.379 101.743L352.816 103.441C349.592 103.526 346.883 100.701 346.815 97.1748V97.0277C346.815 93.5691 349.349 90.6936 352.533 90.6143C352.533 90.6143 393.683 89.4539 425.553 88.5765C426.158 90.5068 427.64 92.0011 429.478 93.1672C431.014 94.0916 432.789 94.5387 434.579 94.4521Z" stroke="#183154" stroke-width="4.5" stroke-miterlimit="10"/>
<path d="M473.66 16.5448C473.659 17.4459 473.446 18.3341 473.037 19.1373L440.161 86.6387C439.775 87.4187 439.225 88.1059 438.548 88.6527C437.872 89.2001 437.085 89.594 436.242 89.8086C434.883 90.1527 433.447 90.0038 432.187 89.3897C431.18 88.8938 430.332 88.1257 429.739 87.1725C429.146 86.2187 428.833 85.1183 428.833 83.9952C428.838 83.0969 429.043 82.2116 429.433 81.4027L462.326 13.8957C462.923 12.69 463.91 11.722 465.127 11.1481C466.343 10.5747 467.718 10.4292 469.027 10.7349C470.336 11.0411 471.504 11.7809 472.341 12.8343C473.178 13.8877 473.634 15.1931 473.637 16.5391L473.66 16.5448Z" stroke="#183154" stroke-width="4.5" stroke-miterlimit="10"/>
</svg>
