<svg width="840" height="516" viewBox="0 0 840 516" fill="none" xmlns="http://www.w3.org/2000/svg">
<g clip-path="url(#clip0_8_35)">
<path d="M840 515.684H0C9.2046 492.214 26.1989 472.304 50.1635 466.397C85.2147 457.768 122.309 481.495 157.283 472.573C177.152 467.51 192.795 452.755 209.233 440.502C271.245 394.271 356.226 380.607 429.605 405.077C467.962 417.862 502.912 440.219 542.203 449.723C593.011 462.019 646.145 451.821 698.395 450.142C749.283 448.508 822.194 469.24 840 515.684Z" fill="#F3F5FD"/>
<path d="M350.004 455.044C346.387 453.861 342.675 455.192 339.124 457.89C343.802 446.079 345.733 435.41 337.735 434.929C332.14 434.594 327.853 438.886 324.597 444.989C323.452 434.259 320.497 426.256 313.877 428.909C306.611 431.822 305.505 441.805 306.608 452.251C303.406 446.916 299.959 443.94 296.829 447.07C287.489 456.41 310.416 482.728 310.416 482.728C310.416 482.728 330.137 490.22 337.814 482.186C348.22 471.296 358.642 457.871 350.004 455.044Z" fill="#8DDBE0"/>
<path d="M339.796 515.684H307.57L302.176 478.068H345.19L339.796 515.684Z" fill="#C1D8ED"/>
<path d="M545.753 515.684H429.226C420.677 508.863 420.089 493.495 428.948 486.632C435.777 481.343 446.101 482.758 452.52 488.259C451.319 484.164 451.294 479.813 452.448 475.704C454.535 468.305 459.175 460.788 466.258 457.796C484.335 450.169 497.18 466.149 499.755 475.083C504.384 468.277 514.736 464.68 521.238 469.262C529.47 475.064 529.098 484.212 522.531 490.778C531.284 489.147 537.871 490.406 543.942 496.919C548.559 501.879 549.266 510.327 545.753 515.684Z" fill="#8DDBE0"/>
<path d="M207.651 130.982L205.603 129.08C206.559 128.05 207.524 127.028 208.496 126.014L210.516 127.945C209.553 128.95 208.598 129.963 207.651 130.982Z" fill="#C1D8ED"/>
<path d="M216.335 122.027L214.371 120.039C216.358 118.077 218.395 116.124 220.424 114.234L222.329 116.279C220.32 118.15 218.306 120.084 216.335 122.027ZM597.115 122.142C595.158 120.202 593.147 118.265 591.138 116.384L593.048 114.344C595.074 116.242 597.108 118.198 599.083 120.158L597.115 122.142ZM228.488 110.708L226.644 108.61C228.736 106.772 230.883 104.942 233.024 103.168L234.807 105.321C232.686 107.075 230.56 108.889 228.488 110.708ZM584.995 110.803C582.925 108.977 580.804 107.16 578.691 105.404L580.478 103.256C582.612 105.028 584.754 106.863 586.843 108.707L584.995 110.803ZM241.279 100.119L239.561 97.9147C241.751 96.2078 244.001 94.5059 246.25 92.8575L247.903 95.1127C245.676 96.7437 243.447 98.4283 241.279 100.119ZM572.23 100.195C570.06 98.4948 567.833 96.8067 565.618 95.1785L567.274 92.9269C569.511 94.5717 571.759 96.2765 573.953 97.9936L572.23 100.195ZM254.671 90.305L253.086 88.002C255.384 86.4216 257.732 84.8579 260.065 83.3534L261.584 85.7027C259.27 87.1898 256.946 88.7398 254.671 90.305ZM558.858 90.3621C556.592 88.7976 554.27 87.2462 551.956 85.7497L553.475 83.4026C555.812 84.9143 558.158 86.4817 560.446 88.062L558.858 90.3621ZM268.622 81.3094L267.175 78.916C269.566 77.4745 272.003 76.0547 274.419 74.6956L275.789 77.1309C273.401 78.477 270.989 79.8845 268.622 81.3094ZM544.92 81.3477C542.554 79.9178 540.146 78.5095 537.752 77.1613L539.126 74.7267C541.542 76.0887 543.979 77.5114 546.368 78.9558L544.92 81.3477ZM283.087 73.1745L281.79 70.6987C284.258 69.4083 286.776 68.139 289.276 66.9267L290.497 69.4409C288.021 70.6394 285.528 71.8957 283.087 73.1731V73.1745ZM530.459 73.1969C528.014 71.9153 525.519 70.6567 523.047 69.4561L524.268 66.9376C526.767 68.1505 529.286 69.4221 531.756 70.7168L530.459 73.1969ZM298.019 65.9344L296.877 63.3833C299.421 62.2449 302.013 61.1332 304.58 60.0779L305.643 62.6629C303.099 63.7074 300.534 64.8082 298.019 65.9344ZM515.526 65.9438C513.006 64.8147 510.44 63.7124 507.897 62.6665L508.959 60.0815C511.53 61.1382 514.123 62.2514 516.669 63.3927L515.526 65.9438ZM313.362 59.6323L312.379 57.0155C314.987 56.0376 317.642 55.0879 320.27 54.1946L321.17 56.8404C318.57 57.7207 315.942 58.6602 313.362 59.6323ZM500.168 59.6323C497.584 58.6617 494.952 57.7214 492.348 56.8354L493.248 54.1888C495.88 55.0843 498.539 56.0347 501.15 57.0155L500.168 59.6323ZM329.062 54.2879L328.244 51.6161C330.904 50.8016 333.612 50.0198 336.295 49.2907L337.027 51.9886C334.374 52.7097 331.694 53.4843 329.062 54.2879ZM484.445 54.28C481.808 53.4742 479.122 52.6988 476.464 51.977L477.197 49.2798C479.883 50.0096 482.597 50.7922 485.262 51.6067L484.445 54.28ZM345.059 49.9402L344.408 47.2221C347.114 46.5762 349.865 45.965 352.587 45.4059L353.149 48.1435C350.462 48.6947 347.737 49.2994 345.059 49.9402ZM468.414 49.9272C465.733 49.2892 463.004 48.6838 460.302 48.1298L460.864 45.3921C463.594 45.952 466.353 46.5632 469.062 47.2083L468.414 49.9272ZM361.294 46.6L360.817 43.8465C363.553 43.372 366.336 42.9344 369.088 42.5445L369.48 45.3126C366.756 45.6967 364.002 46.1299 361.294 46.5986V46.6ZM452.139 46.587C449.419 46.1176 446.656 45.6851 443.928 45.3017L444.317 42.5337C447.075 42.9214 449.866 43.3582 452.614 43.8356L452.139 46.587ZM377.7 44.2833L377.397 41.5052C380.161 41.2028 382.966 40.9403 385.731 40.7255L385.948 43.5116C383.211 43.7242 380.436 43.9846 377.7 44.2833ZM435.678 44.2725C432.942 43.9752 430.157 43.7163 427.402 43.5029L427.619 40.7161C430.403 40.933 433.217 41.1927 435.983 41.4943L435.678 44.2725ZM394.214 42.9966L394.084 40.2047C396.863 40.0752 399.682 39.9877 402.466 39.9443L402.508 42.7391C399.755 42.7796 396.964 42.8686 394.214 42.9966ZM419.102 42.9915C416.468 42.87 413.79 42.7861 411.145 42.7427L410.807 42.7369L410.853 39.9421L411.191 39.9479C413.868 39.992 416.57 40.0767 419.232 40.1996L419.102 42.9915Z" fill="#C1D8ED"/>
<path d="M605.829 131.175C604.885 130.152 603.934 129.137 602.977 128.13L605.002 126.204C605.969 127.222 606.929 128.247 607.882 129.278L605.829 131.175Z" fill="#C1D8ED"/>
<path d="M670.034 143.096H519.255C507.708 143.096 498.348 152.456 498.348 164.001V490.064C498.348 501.609 507.708 510.969 519.255 510.969H670.034C681.58 510.969 690.94 501.609 690.94 490.064V164.001C690.94 152.456 681.58 143.096 670.034 143.096Z" fill="white"/>
<path d="M670.037 515.684H519.255C512.461 515.676 505.949 512.975 501.145 508.172C496.342 503.368 493.64 496.856 493.632 490.064V164.004C493.64 157.211 496.342 150.699 501.145 145.895C505.949 141.092 512.461 138.39 519.255 138.382H670.037C676.83 138.391 683.342 141.093 688.144 145.897C692.947 150.7 695.649 157.211 695.657 164.004V490.064C695.649 496.856 692.947 503.367 688.144 508.17C683.342 512.973 676.83 515.675 670.037 515.684ZM519.255 147.811C514.962 147.816 510.846 149.524 507.81 152.559C504.775 155.595 503.068 159.711 503.064 164.004V490.064C503.069 494.356 504.776 498.471 507.811 501.506C510.847 504.541 514.962 506.248 519.255 506.253H670.037C674.329 506.247 678.444 504.54 681.478 501.505C684.513 498.47 686.219 494.355 686.224 490.064V164.004C686.22 159.711 684.514 155.596 681.479 152.561C678.444 149.525 674.33 147.817 670.037 147.811H519.255Z" fill="#DEE8F5"/>
<path d="M561.63 143.096H627.658V155.903C627.658 158.445 626.648 160.884 624.85 162.682C623.052 164.48 620.613 165.49 618.07 165.49H571.219C568.676 165.49 566.237 164.48 564.439 162.682C562.641 160.884 561.63 158.445 561.63 155.903V143.093V143.096Z" fill="#DEE8F5"/>
<path d="M655.806 405.439L655.749 355.764C655.768 355.463 655.722 355.161 655.616 354.878C655.509 354.596 655.344 354.339 655.131 354.125C654.918 353.911 654.662 353.744 654.38 353.636C654.098 353.528 653.796 353.481 653.495 353.498L594.644 353.553L535.793 353.498C535.492 353.481 535.19 353.528 534.908 353.636C534.626 353.744 534.37 353.911 534.157 354.125C533.944 354.339 533.779 354.596 533.673 354.878C533.566 355.161 533.521 355.463 533.539 355.764L533.483 405.439L533.478 412.855C533.46 413.157 533.506 413.459 533.613 413.742C533.721 414.025 533.887 414.282 534.1 414.496C534.314 414.711 534.57 414.877 534.853 414.986C535.135 415.094 535.438 415.142 535.74 415.125L546.073 415.136L580.658 415.169L580.664 415.192L594.644 415.181L608.624 415.192L608.63 415.169L643.215 415.131L653.548 415.12C653.851 415.136 654.153 415.089 654.435 414.981C654.718 414.872 654.975 414.706 655.188 414.491C655.402 414.277 655.568 414.02 655.675 413.737C655.782 413.454 655.829 413.152 655.811 412.849L655.806 405.439Z" fill="#8DDBE0"/>
<path opacity="0.47" d="M648.988 369.296C646.597 369.291 644.306 368.341 642.614 366.653C640.921 364.966 639.964 362.677 639.952 360.287L594.643 360.326L549.334 360.287C549.321 362.677 548.364 364.966 546.672 366.653C544.979 368.341 542.688 369.291 540.297 369.296L540.266 399.326C541.289 399.325 542.306 399.502 543.269 399.848C544.417 400.259 545.471 400.895 546.369 401.72C547.267 402.545 547.99 403.542 548.496 404.651C549.029 405.816 549.301 407.084 549.292 408.366L578.804 408.393L578.811 408.417L594.641 408.405L610.471 408.417L610.478 408.393L639.991 408.366C639.982 407.084 640.253 405.816 640.786 404.651C641.292 403.542 642.015 402.545 642.913 401.72C643.811 400.895 644.865 400.259 646.013 399.848C646.977 399.502 647.993 399.325 649.017 399.326L648.988 369.296Z" fill="white"/>
<path d="M558.793 389.86C561.91 389.86 564.436 387.333 564.436 384.217C564.436 381.101 561.91 378.575 558.793 378.575C555.677 378.575 553.151 381.101 553.151 384.217C553.151 387.333 555.677 389.86 558.793 389.86Z" fill="#8DDBE0"/>
<path d="M630.495 389.86C633.611 389.86 636.137 387.333 636.137 384.217C636.137 381.101 633.611 378.575 630.495 378.575C627.378 378.575 624.852 381.101 624.852 384.217C624.852 387.333 627.378 389.86 630.495 389.86Z" fill="#8DDBE0"/>
<path d="M604.592 367.6C607.345 369.181 609.654 371.433 611.304 374.145C612.954 376.858 613.891 379.943 614.028 383.115C614.113 386.229 614.028 389.859 610.744 395.137C609.036 397.754 606.68 399.883 603.904 401.318C602.735 401.963 601.497 402.474 600.215 402.842C598.409 403.388 596.532 403.664 594.645 403.658C591.232 403.658 587.881 402.757 584.928 401.047C581.976 399.336 579.528 396.876 577.831 393.915C576.139 391.011 575.246 387.71 575.242 384.349C575.234 384.311 575.242 384.276 575.236 384.242C575.248 379.094 577.3 374.161 580.943 370.524C584.586 366.887 589.523 364.843 594.671 364.839C595.021 364.847 595.37 364.854 595.715 364.878C598.855 365.03 601.907 365.966 604.592 367.6Z" fill="#8DDBE0"/>
<path d="M593.466 396.259V393.403C592.559 393.289 591.67 393.053 590.826 392.702C589.949 392.359 589.142 391.86 588.443 391.229L590.273 388.404C590.907 388.904 591.603 389.322 592.342 389.647C592.978 389.92 593.663 390.062 594.355 390.063C594.979 390.117 595.602 389.945 596.112 389.579C596.308 389.388 596.46 389.156 596.556 388.9C596.652 388.643 596.691 388.368 596.669 388.095C596.673 387.858 596.625 387.623 596.529 387.406C596.433 387.189 596.292 386.995 596.114 386.838C595.688 386.456 595.218 386.125 594.715 385.852C594.154 385.538 593.551 385.225 592.907 384.912C592.265 384.601 591.659 384.222 591.098 383.782C590.545 383.354 590.072 382.832 589.7 382.239C589.312 381.584 589.12 380.831 589.145 380.07C589.098 378.803 589.509 377.561 590.303 376.572C591.121 375.623 592.248 374.993 593.485 374.791V371.85H596.256V374.734C597.103 374.845 597.919 375.128 598.654 375.564C599.337 375.983 599.961 376.493 600.509 377.079L598.393 379.476C597.951 379.051 597.452 378.69 596.91 378.404C596.403 378.157 595.845 378.033 595.282 378.042C594.725 378.004 594.172 378.155 593.711 378.47C593.518 378.644 593.368 378.862 593.274 379.104C593.179 379.347 593.143 379.609 593.167 379.868C593.165 380.09 593.215 380.31 593.311 380.511C593.408 380.711 593.549 380.887 593.723 381.025C594.153 381.378 594.622 381.68 595.121 381.926C595.683 382.212 596.287 382.508 596.934 382.812C597.576 383.116 598.183 383.49 598.743 383.928C599.303 384.365 599.777 384.903 600.141 385.513C600.532 386.215 600.724 387.01 600.696 387.812C600.728 389.079 600.334 390.32 599.579 391.338C598.74 392.375 597.551 393.07 596.236 393.291V396.261L593.466 396.259Z" fill="white"/>
<path d="M130.132 510.969H280.911C292.458 510.969 301.818 501.609 301.818 490.064L301.818 164.001C301.818 152.456 292.458 143.096 280.911 143.096H130.132C118.586 143.096 109.226 152.456 109.226 164.001L109.226 490.064C109.226 501.609 118.586 510.969 130.132 510.969Z" fill="white"/>
<path d="M104.509 490.064V164.003C104.516 157.211 107.218 150.698 112.021 145.894C116.824 141.091 123.337 138.388 130.13 138.38H280.911C287.705 138.388 294.218 141.09 299.022 145.894C303.825 150.698 306.527 157.21 306.534 164.003V490.064C306.526 496.856 303.824 503.368 299.021 508.172C294.217 512.975 287.705 515.676 280.911 515.684H130.13C123.337 515.676 116.825 512.974 112.022 508.171C107.219 503.368 104.517 496.856 104.509 490.064ZM130.13 147.811C125.838 147.816 121.722 149.524 118.687 152.56C115.652 155.596 113.945 159.711 113.941 164.003V490.064C113.946 494.356 115.653 498.47 118.688 501.505C121.723 504.54 125.838 506.248 130.13 506.253H280.911C285.204 506.248 289.319 504.541 292.355 501.506C295.39 498.471 297.097 494.356 297.102 490.064V164.003C297.097 159.711 295.39 155.596 292.355 152.561C289.319 149.526 285.204 147.818 280.911 147.813L130.13 147.811Z" fill="#DEE8F5"/>
<path d="M228.947 165.493H182.097C179.554 165.493 177.115 164.483 175.317 162.685C173.519 160.887 172.508 158.448 172.508 155.905V143.096H238.536V155.905C238.536 158.448 237.525 160.887 235.727 162.685C233.929 164.483 231.49 165.493 228.947 165.493Z" fill="#DEE8F5"/>
<path d="M244.999 205.897H166.043C160.486 205.897 155.981 210.402 155.981 215.958V240.194C155.981 245.751 160.486 250.255 166.043 250.255H244.999C250.556 250.255 255.061 245.751 255.061 240.194V215.958C255.061 210.402 250.556 205.897 244.999 205.897Z" fill="#262626"/>
<path d="M274.944 303.726H136.099C131.476 303.726 127.729 307.473 127.729 312.096V390.736C127.729 395.359 131.476 399.106 136.099 399.106H274.944C279.567 399.106 283.314 395.359 283.314 390.736V312.096C283.314 307.473 279.567 303.726 274.944 303.726Z" fill="#1E3B80"/>
<path d="M159.667 316.615H145.159C142.652 316.615 140.619 318.648 140.619 321.155V329.605C140.619 332.112 142.652 334.145 145.159 334.145H159.667C162.175 334.145 164.208 332.112 164.208 329.605V321.155C164.208 318.648 162.175 316.615 159.667 316.615Z" fill="white"/>
<path d="M164.208 318.559V322.673H156.216L154.927 321.384V316.618H162.264C162.779 316.618 163.273 316.822 163.638 317.186C164.002 317.55 164.207 318.044 164.208 318.559Z" fill="#262626"/>
<path d="M164.208 328.087V332.2C164.208 332.455 164.158 332.708 164.06 332.944C163.962 333.18 163.819 333.394 163.639 333.575C163.458 333.756 163.244 333.899 163.008 333.996C162.772 334.094 162.519 334.144 162.264 334.144H154.927V329.247L156.216 328.09L164.208 328.087Z" fill="#262626"/>
<path d="M149.771 316.618V321.387L148.613 322.676H140.619V318.563C140.619 318.307 140.669 318.054 140.767 317.819C140.864 317.583 141.008 317.368 141.188 317.188C141.369 317.007 141.583 316.864 141.819 316.766C142.055 316.669 142.308 316.618 142.563 316.618H149.771Z" fill="#262626"/>
<path d="M149.771 329.247V334.144H142.563C142.308 334.144 142.055 334.094 141.819 333.996C141.583 333.899 141.369 333.756 141.188 333.575C141.008 333.394 140.864 333.18 140.767 332.944C140.669 332.708 140.619 332.455 140.619 332.2V328.087H148.611L149.771 329.247Z" fill="#262626"/>
<path d="M167.029 350.52H142.62C142.089 350.52 141.58 350.309 141.205 349.934C140.83 349.558 140.619 349.05 140.619 348.519C140.619 347.988 140.83 347.479 141.205 347.104C141.58 346.729 142.089 346.518 142.62 346.518H167.029C167.56 346.518 168.069 346.729 168.444 347.104C168.819 347.479 169.03 347.988 169.03 348.519C169.03 349.05 168.819 349.558 168.444 349.934C168.069 350.309 167.56 350.52 167.029 350.52Z" fill="white"/>
<path d="M201.376 350.52H176.966C176.436 350.52 175.927 350.309 175.552 349.934C175.176 349.558 174.966 349.05 174.966 348.519C174.966 347.988 175.176 347.479 175.552 347.104C175.927 346.729 176.436 346.518 176.966 346.518H201.376C201.906 346.518 202.415 346.729 202.79 347.104C203.166 347.479 203.376 347.988 203.376 348.519C203.376 349.05 203.166 349.558 202.79 349.934C202.415 350.309 201.906 350.52 201.376 350.52Z" fill="white"/>
<path d="M235.723 350.52H211.313C210.782 350.52 210.274 350.309 209.898 349.934C209.523 349.558 209.312 349.05 209.312 348.519C209.312 347.988 209.523 347.479 209.898 347.104C210.274 346.729 210.782 346.518 211.313 346.518H235.723C236.254 346.518 236.763 346.729 237.138 347.104C237.513 347.479 237.724 347.988 237.724 348.519C237.724 349.05 237.513 349.558 237.138 349.934C236.763 350.309 236.254 350.52 235.723 350.52Z" fill="white"/>
<path d="M270.07 350.52H245.66C245.129 350.52 244.62 350.309 244.245 349.934C243.87 349.558 243.659 349.05 243.659 348.519C243.659 347.988 243.87 347.479 244.245 347.104C244.62 346.729 245.129 346.518 245.66 346.518H270.07C270.601 346.518 271.109 346.729 271.485 347.104C271.86 347.479 272.071 347.988 272.071 348.519C272.071 349.05 271.86 349.558 271.485 349.934C271.109 350.309 270.601 350.52 270.07 350.52Z" fill="white"/>
<path d="M270.424 372.167C270.402 374.887 269.305 377.488 267.374 379.403C265.442 381.318 262.832 382.393 260.112 382.393C257.392 382.393 254.782 381.318 252.85 379.403C250.919 377.488 249.822 374.887 249.8 372.167C249.801 370.63 250.15 369.113 250.819 367.729C251.489 366.346 252.462 365.131 253.667 364.176C255.173 362.943 256.999 362.164 258.932 361.93C260.865 361.696 262.824 362.017 264.581 362.854C266.339 363.692 267.821 365.013 268.856 366.662C269.89 368.311 270.434 370.22 270.424 372.167Z" fill="white"/>
<path d="M248.511 380.16C246.999 381.392 245.168 382.171 243.232 382.405C241.295 382.639 239.332 382.319 237.57 381.482C235.808 380.645 234.319 379.326 233.277 377.677C232.234 376.028 231.681 374.118 231.681 372.167C231.681 370.217 232.234 368.306 233.277 366.657C234.319 365.009 235.808 363.689 237.57 362.852C239.332 362.016 241.295 361.696 243.232 361.93C245.168 362.164 246.999 362.942 248.511 364.175C247.316 365.139 246.35 366.356 245.682 367.738C245.013 369.12 244.659 370.632 244.643 372.167C244.645 373.705 244.993 375.222 245.663 376.606C246.332 377.99 247.306 379.204 248.511 380.16Z" fill="#262626"/>
<path d="M79.1249 215.588C79.1249 215.588 84.942 213.09 84.942 197.809L96.6349 196.618C96.6349 196.618 94.2247 210.12 99.6976 214.917L79.1249 215.588Z" fill="#E98862"/>
<path d="M78.8898 191.387C79.3093 196.058 81.4649 200.625 85.4057 202.445C89.6898 204.566 94.4279 205.606 99.2064 205.475C111.9 205.475 111.757 176.603 106.227 170.544C100.697 164.485 82.8392 166.57 79.9386 175.709C78.4384 180.435 78.4897 186.941 78.8898 191.387Z" fill="#E98862"/>
<path d="M105.558 182.27C108.022 182.252 110.482 182.045 112.915 181.652C112.915 181.652 112.17 162.903 92.2565 163.972C89.6706 163.854 87.0795 164.006 84.5254 164.427C78.5404 165.345 70.0584 171.464 68.684 186.777C68.0562 193.803 65.6337 200.425 63.7863 204.618C63.5678 205.11 63.4757 205.649 63.5182 206.186C63.5608 206.723 63.7368 207.24 64.0302 207.692C64.3235 208.143 64.725 208.514 65.1982 208.771C65.6713 209.029 66.2012 209.163 66.7397 209.164L109.402 208.826C109.907 208.827 110.404 208.709 110.855 208.483C111.306 208.256 111.698 207.927 111.999 207.523C112.3 207.118 112.502 206.648 112.589 206.151C112.675 205.654 112.645 205.144 112.499 204.661C110.179 196.973 105.935 192.264 105.558 182.27Z" fill="#0F1011"/>
<path d="M119.396 316.221C133.827 379.79 146.894 443.785 157.206 508.159L142.711 511.141C126.775 447.925 113.517 383.967 101.683 319.864L119.396 316.221Z" fill="#E98862"/>
<path d="M89.5664 320.162C90.8915 383.315 90.7961 446.609 87.9244 509.718H73.1247C70.2544 446.61 70.1589 383.314 71.4827 320.162H89.5664Z" fill="#E98862"/>
<path d="M107.071 515.55C107.479 515.548 107.883 515.462 108.257 515.297C108.63 515.132 108.966 514.891 109.243 514.591C109.52 514.29 109.731 513.936 109.865 513.55C109.998 513.164 110.051 512.754 110.019 512.347C109.975 511.783 109.771 511.243 109.43 510.79C109.089 510.338 108.627 509.993 108.096 509.795L90.4185 503.874C90.076 503.76 89.7131 503.722 89.3545 503.762C88.9959 503.802 88.6502 503.919 88.341 504.104C85.9105 505.791 83.0028 506.653 80.0457 506.564C77.7427 506.4 75.532 505.592 73.6657 504.233C73.5017 504.099 73.3028 504.013 73.0921 503.988C72.8815 503.962 72.6679 503.997 72.4763 504.088C72.2846 504.178 72.1227 504.322 72.0096 504.502C71.8964 504.681 71.8366 504.889 71.8371 505.101V513.746C71.8369 514.001 71.8871 514.254 71.9848 514.489C72.0826 514.725 72.2259 514.939 72.4065 515.119C72.5872 515.299 72.8017 515.442 73.0376 515.539C73.2736 515.636 73.5264 515.685 73.7815 515.684L107.071 515.55Z" fill="#C1D8ED"/>
<path d="M174.873 515.55C175.281 515.548 175.685 515.461 176.059 515.296C176.433 515.131 176.768 514.891 177.045 514.59C177.322 514.29 177.533 513.936 177.667 513.55C177.8 513.164 177.853 512.754 177.821 512.347C177.777 511.782 177.573 511.242 177.232 510.79C176.891 510.338 176.428 509.992 175.898 509.794L158.218 503.873C157.875 503.76 157.512 503.722 157.154 503.762C156.795 503.801 156.449 503.918 156.14 504.104C153.709 505.791 150.802 506.653 147.845 506.563C145.542 506.4 143.331 505.592 141.464 504.233C141.3 504.098 141.102 504.013 140.891 503.987C140.68 503.961 140.467 503.996 140.275 504.087C140.083 504.178 139.922 504.322 139.809 504.501C139.695 504.681 139.636 504.889 139.637 505.101V513.746C139.636 514.001 139.687 514.253 139.785 514.489C139.882 514.724 140.026 514.938 140.206 515.118C140.387 515.298 140.602 515.441 140.838 515.538C141.074 515.635 141.327 515.684 141.582 515.683L174.873 515.55Z" fill="#C1D8ED"/>
<path d="M62.3157 292.894C62.3157 292.894 54.0985 329.69 54.0985 360.633C54.0985 391.577 44.6631 439.506 44.6631 439.506C44.6631 439.506 71.4031 435.18 89.5432 439.506C120.799 446.956 148.823 430.729 148.823 430.729L117.346 296.294L62.3157 292.894Z" fill="#262626"/>
<path d="M45.4212 317.937C45.4212 320.092 46.559 327.298 44.7289 327.813C43.6309 328.122 42.3347 322.75 42.3347 322.75" fill="#E98862"/>
<path d="M36.7786 316.805C36.7786 316.805 30.8009 331.353 37.6192 339.711C37.793 339.923 38.027 340.079 38.2905 340.156C38.554 340.234 38.8348 340.23 39.0961 340.146C39.3575 340.061 39.5874 339.9 39.7556 339.683C39.9239 339.466 40.0228 339.203 40.0395 338.929C40.3708 333.294 41.5079 321.715 45.223 323.071V313.983" fill="#E98862"/>
<path d="M118.008 254.656C117.736 257.378 117.538 260.052 117.509 262.607C117.231 286.091 123.572 290.515 120.448 297.694C117.409 304.656 57.8606 307.551 57.0649 295.295C56.5586 287.5 63.4304 280.692 63.4304 265.499C63.3726 262.612 62.991 259.74 62.2925 256.938L55.5871 275.169L49.0046 319.507L33.4028 317.193L40.1046 272.049C40.185 271.516 40.32 270.993 40.5075 270.487L57.1105 225.343L57.2103 225.38C57.9319 223.157 59.1773 221.141 60.8415 219.5C64.1465 216.196 69.8689 214.057 76.8391 214.057C87.2148 214.057 101.386 214.079 104.29 214.202C112.782 214.563 116.945 218.224 118.774 223.685C118.774 223.688 119.714 234.384 118.008 254.656Z" fill="#FFCB01"/>
<path d="M178.644 248.163C178.644 248.163 188.944 245.409 190.435 243.461C191.926 241.514 188.402 234.872 188.402 234.872C188.402 234.872 198.713 230.761 197.739 229.093C196.589 227.122 183.7 234.018 183.7 234.018C183.7 234.018 186.521 230.747 185.163 229.863C184.605 229.501 183.871 229.883 181.763 232.15C179.364 234.733 175.224 238.39 175.224 238.39L178.644 248.163Z" fill="#E98862"/>
<path d="M135.874 278.54C134.471 278.539 133.094 278.164 131.883 277.454C130.673 276.744 129.674 275.725 128.989 274.5L102.865 227.742L116.634 220.05L137.348 259.295L174.098 236.574L181.863 249.295C181.863 249.295 152.846 269.252 143.616 274.762C141.671 275.924 138.112 278.54 135.874 278.54Z" fill="#FFCB01"/>
<path d="M406.742 82.2497C429.268 82.2497 447.528 63.9907 447.528 41.4669C447.528 18.9432 429.268 0.684082 406.742 0.684082C384.217 0.684082 365.956 18.9432 365.956 41.4669C365.956 63.9907 384.217 82.2497 406.742 82.2497Z" fill="#F3F5FD"/>
<path d="M422.527 34.2448H420.279V29.223C420.292 27.4372 419.951 25.6665 419.277 24.0128C418.603 22.3592 417.608 20.8553 416.349 19.5879C415.091 18.3205 413.594 17.3146 411.946 16.6282C410.297 15.9418 408.528 15.5884 406.742 15.5884C404.956 15.5884 403.188 15.9418 401.539 16.6282C399.891 17.3146 398.394 18.3205 397.136 19.5879C395.877 20.8553 394.882 22.3592 394.208 24.0128C393.534 25.6665 393.193 27.4372 393.206 29.223V34.2448H390.958C390.449 34.2447 389.945 34.3449 389.475 34.5395C389.005 34.7342 388.578 35.0195 388.218 35.3793C387.858 35.739 387.573 36.1661 387.378 36.6362C387.184 37.1062 387.084 37.61 387.084 38.1188V63.3725C387.084 63.8813 387.184 64.3851 387.378 64.8552C387.573 65.3252 387.858 65.7523 388.218 66.112C388.578 66.4718 389.005 66.7571 389.475 66.9518C389.945 67.1465 390.449 67.2466 390.958 67.2465H422.527C423.555 67.2465 424.54 66.8383 425.267 66.1118C425.993 65.3853 426.401 64.4 426.401 63.3725V38.1188C426.401 37.6101 426.301 37.1063 426.106 36.6363C425.912 36.1663 425.626 35.7392 425.267 35.3795C424.907 35.0198 424.48 34.7344 424.01 34.5397C423.54 34.345 423.036 34.2448 422.527 34.2448ZM397.606 29.223C397.606 26.8002 398.569 24.4766 400.282 22.7635C401.995 21.0503 404.319 20.0878 406.742 20.0878C409.165 20.0878 411.489 21.0503 413.202 22.7635C414.915 24.4766 415.878 26.8002 415.878 29.223V34.2448H397.606V29.223Z" fill="#00FF44"/>
<path d="M406.742 56.6112C409.838 56.6112 412.348 54.1015 412.348 51.0057C412.348 47.9098 409.838 45.4001 406.742 45.4001C403.646 45.4001 401.136 47.9098 401.136 51.0057C401.136 54.1015 403.646 56.6112 406.742 56.6112Z" fill="white"/>
<path d="M594.644 322.167C627.797 322.167 654.673 295.293 654.673 262.143C654.673 228.992 627.797 202.119 594.644 202.119C561.491 202.119 534.616 228.992 534.616 262.143C534.616 295.293 561.491 322.167 594.644 322.167Z" fill="#C1D8ED"/>
<path d="M584.351 294.915C583.1 294.915 581.896 294.437 580.986 293.578L558.184 272.063C557.701 271.626 557.31 271.096 557.034 270.505C556.758 269.914 556.602 269.274 556.577 268.622C556.551 267.971 556.656 267.321 556.885 266.71C557.113 266.099 557.462 265.54 557.909 265.066C558.357 264.591 558.895 264.211 559.491 263.947C560.087 263.683 560.73 263.541 561.382 263.528C562.034 263.516 562.682 263.634 563.288 263.875C563.894 264.116 564.446 264.475 564.912 264.932L584.08 283.015L624.11 238.908C624.983 237.946 626.204 237.369 627.503 237.306C628.801 237.243 630.072 237.699 631.035 238.572C631.997 239.446 632.574 240.666 632.637 241.965C632.7 243.264 632.244 244.534 631.371 245.497L587.982 293.306C587.544 293.789 587.014 294.18 586.423 294.455C585.833 294.73 585.193 294.885 584.542 294.911C584.477 294.914 584.414 294.915 584.351 294.915Z" fill="white"/>
<path d="M706.453 509.675C706.453 509.675 706.401 493.945 706.401 492.552H721.592C721.592 493.94 721.643 509.625 721.643 509.625L706.453 509.675Z" fill="#E98862"/>
<path d="M687.986 515.55C687.578 515.548 687.174 515.461 686.8 515.296C686.427 515.131 686.091 514.891 685.814 514.59C685.538 514.29 685.326 513.936 685.192 513.55C685.059 513.164 685.006 512.754 685.038 512.347C685.082 511.782 685.286 511.242 685.627 510.79C685.968 510.338 686.431 509.992 686.961 509.794L704.641 503.873C704.984 503.76 705.347 503.722 705.706 503.762C706.064 503.801 706.41 503.918 706.72 504.104C709.15 505.791 712.057 506.653 715.014 506.563C717.317 506.4 719.528 505.592 721.395 504.233C721.559 504.098 721.758 504.013 721.968 503.987C722.179 503.961 722.393 503.996 722.584 504.087C722.776 504.178 722.938 504.322 723.051 504.501C723.164 504.681 723.223 504.889 723.223 505.101V513.746C723.223 514.001 723.173 514.253 723.075 514.489C722.977 514.724 722.834 514.938 722.653 515.118C722.472 515.298 722.258 515.441 722.022 515.538C721.786 515.635 721.533 515.684 721.278 515.683L687.986 515.55Z" fill="#C1D8ED"/>
<path d="M645.926 507.857C644.324 494.39 644.324 493.005 644.324 492.55H659.515C659.515 492.504 659.515 492.445 659.515 492.372C659.568 493.497 660.335 500.354 661.013 506.063L645.926 507.857Z" fill="#E98862"/>
<path d="M698.889 504.457L725.558 502.204C722.308 452.503 712.257 291.877 712.257 291.877L657.227 295.277L656.661 299.132L656.468 299.075C650.016 333.276 647.27 371.051 642.039 405.496C641.671 437.393 641.57 470.803 640.322 502.613L667.086 503.069C667.001 472.02 667.772 439.532 668.685 408.39C673.251 383.555 676.826 357.564 682.078 332.486C686.662 384.131 694.052 455.124 698.889 504.457Z" fill="#262626"/>
<path d="M627.418 515.55C627.01 515.548 626.606 515.461 626.232 515.296C625.858 515.131 625.523 514.891 625.246 514.591C624.969 514.29 624.758 513.936 624.624 513.55C624.49 513.164 624.438 512.754 624.47 512.347C624.514 511.782 624.718 511.242 625.059 510.79C625.399 510.338 625.862 509.992 626.392 509.794L644.073 503.873C644.416 503.76 644.779 503.722 645.137 503.762C645.496 503.801 645.842 503.918 646.151 504.104C648.581 505.791 651.489 506.653 654.446 506.563C656.749 506.4 658.96 505.592 660.826 504.233C660.99 504.098 661.189 504.013 661.4 503.987C661.61 503.962 661.824 503.996 662.015 504.087C662.207 504.178 662.369 504.322 662.482 504.501C662.595 504.681 662.655 504.889 662.655 505.101V513.746C662.655 514.001 662.604 514.253 662.506 514.489C662.409 514.724 662.265 514.938 662.084 515.118C661.904 515.298 661.689 515.441 661.453 515.537C661.217 515.634 660.965 515.684 660.71 515.683L627.418 515.55Z" fill="#C1D8ED"/>
<path d="M689.907 204.165C689.897 204.093 689.895 204.02 689.893 203.948C689.856 202.632 689.867 201.207 689.953 199.642L678.346 197.82C678.599 200.251 678.642 202.7 678.472 205.139C678.44 205.559 678.402 205.987 678.356 206.422C677.957 209.972 676.927 213.728 674.488 215.779L692.564 215.273C691.367 213.313 690.105 209.912 689.907 204.165Z" fill="#E98862"/>
<path d="M696.343 193.55C695.674 198.192 693.276 202.637 689.244 204.244C684.457 206.151 680.877 206.372 675.3 206.529C667.69 206.746 667.718 198.8 667.279 190.809C666.838 182.785 667.233 174.154 670.163 171.272C676.009 165.517 693.73 168.557 696.136 177.839C697.38 182.638 696.98 189.133 696.343 193.55Z" fill="#E98862"/>
<path d="M662.783 176.125C662.783 176.125 659.646 175.517 660.412 172.385C660.919 170.308 663.573 170.692 663.573 170.692C663.573 170.692 661.06 170.304 660.999 168.122C660.96 166.748 661.951 164.387 665.177 165.629C668.962 167.085 673.223 166.765 676.451 166.128C678.275 165.674 680.131 165.359 682.002 165.184H682.011C684.166 165.086 686.322 165.313 688.409 165.857C694.256 167.428 703.315 172.399 701.646 184.219C699.842 196.995 692.254 202.801 691.212 203.604C689.25 205.116 676.944 205.758 675.69 204.573C673.809 202.798 672.609 195.483 672.622 182.682C667.552 182.025 664.075 181.782 664.075 181.782C664.075 181.782 659.88 182.058 659.797 178.992C659.714 175.927 662.783 176.125 662.783 176.125Z" fill="#0F1011"/>
<path d="M669.207 192.272C669.171 192.857 669.251 193.444 669.443 193.998C669.635 194.552 669.934 195.063 670.325 195.5C670.715 195.938 671.188 196.294 671.716 196.548C672.245 196.802 672.818 196.949 673.404 196.981C673.99 197.012 674.576 196.927 675.128 196.731C675.681 196.535 676.189 196.232 676.624 195.838C677.059 195.445 677.411 194.969 677.661 194.439C677.911 193.908 678.054 193.333 678.081 192.748C678.122 192.163 678.045 191.576 677.855 191.022C677.665 190.468 677.365 189.957 676.974 189.521C676.582 189.085 676.107 188.732 675.577 188.483C675.046 188.235 674.471 188.095 673.885 188.073C670.713 188.059 669.338 189.825 669.207 192.272Z" fill="#E98862"/>
<path d="M733.12 324.285L724.478 325.416C724.478 327.572 723.34 334.778 725.171 335.293C725.867 335.488 726.641 333.403 727.116 331.85C728.936 334.916 729.616 342.265 729.859 346.409C729.876 346.683 729.975 346.946 730.143 347.163C730.312 347.38 730.541 347.541 730.803 347.626C731.064 347.71 731.345 347.714 731.608 347.636C731.872 347.559 732.106 347.403 732.28 347.191C739.098 338.835 733.12 324.285 733.12 324.285Z" fill="#E98862"/>
<path d="M656.366 262.607C656.132 242.549 645.588 215.231 669.586 214.204C672.489 214.079 686.661 214.06 697.036 214.06C704.007 214.06 709.729 216.198 713.034 219.503C724.427 230.896 710.443 250.309 710.443 265.504C710.443 280.7 717.314 287.506 716.808 295.3C716.012 307.557 656.461 304.661 653.426 297.7C650.302 290.514 656.643 286.091 656.366 262.607Z" fill="#F79E1B"/>
<path d="M721.996 327.872L716.036 272.228L700.319 228.382L715.166 223.06L731.201 267.792C731.412 268.38 731.552 268.991 731.619 269.613L737.678 326.192L721.996 327.872Z" fill="#F79E1B"/>
<path d="M593.686 243.745C594.372 242.313 595.163 240.128 594.193 239.155C593.197 238.16 591.534 240.525 590.514 242.254C588.177 241.265 585.561 240.439 584.74 241.26C583.149 242.852 581.249 248.212 582.192 250.759C583.136 253.305 592.536 253.767 592.536 253.767L595.647 244.249C594.976 244.156 594.318 243.987 593.686 243.745Z" fill="#E98862"/>
<path d="M632.64 268.551C631.885 268.551 631.135 268.442 630.411 268.228L590.909 256.583L595.367 241.456L629.933 251.643L657.926 218.466L669.981 228.636L638.668 265.747C637.928 266.625 637.005 267.33 635.964 267.815C634.923 268.299 633.788 268.55 632.64 268.551Z" fill="#F79E1B"/>
<path d="M196.742 238.369L199.366 234.299C201.447 235.89 203.266 236.706 205.202 236.706C207.521 236.706 208.541 235.744 208.541 233.885C208.541 229.675 197.739 229.751 197.739 222.367C197.739 217.62 201.027 214.596 206.213 214.596C207.685 214.575 209.145 214.875 210.49 215.474C211.836 216.074 213.034 216.959 214.003 218.068L210.993 221.516C209.505 220.163 208.244 219.451 206.535 219.451C204.566 219.451 203.497 220.247 203.497 222.083C203.497 225.985 214.3 225.645 214.3 233.466C214.3 238.168 211.189 241.567 205.2 241.567C202.099 241.495 199.115 240.367 196.742 238.369ZM203.939 210.582H207.931V216.475H203.939V210.582ZM203.939 239.104H207.931V245.57H203.939V239.104Z" fill="white"/>
</g>
<defs>
<clipPath id="clip0_8_35">
<rect width="840" height="515" fill="white" transform="translate(0 0.684082)"/>
</clipPath>
</defs>
</svg>
